<svg width="18" height="18" viewBox="0 0 18 18" fill="none" xmlns="http://www.w3.org/2000/svg">
<path fill-rule="evenodd" clip-rule="evenodd" d="M1.5 0C0.671573 0 0 0.671573 0 1.5V16.5C0 17.3284 0.671573 18 1.5 18H16.5C17.3284 18 18 17.3284 18 16.5V1.5C18 0.671573 17.3284 0 16.5 0H1.5ZM7.44945 5.11025C7.15638 5.02756 6.83666 5 6.49029 5H3V12.6072H6.57022C6.88994 12.6072 7.20966 12.552 7.52938 12.4694C7.84911 12.3867 8.14218 12.2489 8.38198 12.0835C8.62177 11.9181 8.83491 11.67 8.96813 11.3944C9.10135 11.1188 9.18128 10.7881 9.18128 10.4022C9.18128 9.93363 9.04806 9.5202 8.83491 9.18945C8.62177 8.85871 8.2754 8.61065 7.82246 8.47283C8.14218 8.30746 8.40862 8.08696 8.56848 7.8389C8.75498 7.59085 8.83491 7.2601 8.83491 6.87423C8.83491 6.54348 8.78163 6.2403 8.67505 5.99224C8.56848 5.74418 8.40862 5.55124 8.19547 5.41343C7.98232 5.27562 7.74253 5.16537 7.44945 5.11025ZM6.99652 7.86647C6.81001 8.00428 6.57022 8.08696 6.27714 8.08696H4.62525V6.29542H6.17057C6.33043 6.29542 6.46365 6.29542 6.59686 6.32298C6.73008 6.35055 6.83666 6.40567 6.94323 6.4608C7.0498 6.54348 7.12973 6.62617 7.18302 6.73642C7.23631 6.84667 7.26295 7.01204 7.26295 7.17741C7.26295 7.4806 7.18302 7.72866 6.99652 7.86647ZM6.81001 11.2842C6.6768 11.3117 6.51693 11.3393 6.35707 11.3393H4.62525V9.21701H6.38372C6.73008 9.21701 7.02316 9.2997 7.23631 9.46507C7.44945 9.65801 7.55603 9.93363 7.55603 10.3195C7.55603 10.5124 7.50274 10.6778 7.44945 10.8156C7.36952 10.9534 7.28959 11.0361 7.18302 11.1188C7.07645 11.2015 6.94323 11.2566 6.81001 11.2842ZM12.4584 11.6425C12.0321 11.6425 11.7124 11.5322 11.4993 11.3117C11.2861 11.0912 11.1262 10.6778 11.1262 10.2368H14.9895C15.0162 9.79582 14.9895 9.40995 14.9363 9.02408C14.8297 8.63821 14.6698 8.2799 14.4567 7.97672C14.2435 7.64597 13.9771 7.42547 13.6307 7.23254C13.2844 7.0396 12.8847 6.95691 12.4318 6.95691C12.0055 6.95691 11.6591 7.0396 11.3128 7.17741C10.993 7.31522 10.7 7.53572 10.4602 7.78378C10.2204 8.0594 10.0339 8.36259 9.90065 8.72089C9.76743 9.0792 9.71415 9.46507 9.71415 9.87851C9.71415 10.3195 9.76743 10.7054 9.90065 11.0637C10.0072 11.422 10.1937 11.7252 10.4335 11.9732C10.6733 12.2489 10.9397 12.4418 11.2861 12.5796C11.6325 12.7174 12.0055 12.8001 12.4318 12.8001C13.0446 12.8001 13.5508 12.6347 13.9771 12.3591C14.4034 12.0559 14.7231 11.5874 14.9363 10.9259H13.6307C13.5774 11.0912 13.4442 11.2566 13.2311 11.422C13.0179 11.5598 12.7515 11.6425 12.4584 11.6425ZM12.3518 8.11453C12.6982 8.11453 12.9913 8.22478 13.1778 8.41771C13.3643 8.61065 13.4975 8.88627 13.5508 9.2997H11.1529C11.1529 9.20836 11.1712 9.11703 11.1926 9.01002C11.197 8.98786 11.2016 8.96503 11.2062 8.94139C11.2328 8.80358 11.2861 8.66577 11.3927 8.55552C11.4993 8.44527 11.6058 8.33502 11.7657 8.25234C11.9256 8.16965 12.1121 8.11453 12.3518 8.11453ZM13.8172 5.52368H10.8332V6.26786H13.8172V5.52368Z" fill="#D9D9D9"/>
</svg>
