<svg width="32" height="32" viewBox="0 0 32 32" fill="none" xmlns="http://www.w3.org/2000/svg">
<path fill-rule="evenodd" clip-rule="evenodd" d="M5.62615 5.62624C6.01667 5.23571 6.64983 5.23571 7.04036 5.62624L15.9999 14.5858L24.9595 5.62624C25.35 5.23571 25.9832 5.23571 26.3737 5.62624C26.7642 6.01676 26.7642 6.64993 26.3737 7.04045L17.4141 16L26.3737 24.9596C26.7642 25.3501 26.7642 25.9833 26.3737 26.3738C25.9832 26.7643 25.35 26.7643 24.9595 26.3738L15.9999 17.4142L7.04036 26.3738C6.64983 26.7643 6.01667 26.7643 5.62615 26.3738C5.23562 25.9833 5.23562 25.3501 5.62615 24.9596L14.5857 16L5.62615 7.04045C5.23562 6.64993 5.23562 6.01676 5.62615 5.62624Z" fill="#E9EBEC"/>
</svg>
