<svg width="40" height="40" viewBox="0 0 40 40" fill="none" xmlns="http://www.w3.org/2000/svg">
<path d="M8.48666 32.97L8.94065 32.079L8.48666 32.97ZM7.02994 31.5133L7.92094 31.0593H7.92094L7.02994 31.5133ZM32.97 31.5133L32.079 31.0593L32.97 31.5133ZM31.5133 32.97L31.0593 32.079H31.0593L31.5133 32.97ZM32.97 8.48672L32.079 8.94071L32.97 8.48672ZM31.5133 7.03L31.0593 7.92101L31.0593 7.92101L31.5133 7.03ZM7.02994 8.48672L6.13893 8.03273H6.13893L7.02994 8.48672ZM8.48666 7.03L8.03267 6.13899V6.13899L8.48666 7.03ZM21 6.66669V5.66669H19V6.66669H21ZM6.66663 15.6667H5.66663V17.6667H6.66663V15.6667ZM19 33.3334V34.3334H21V33.3334H19ZM33.3333 24.3334H34.3333V22.3334H33.3333V24.3334ZM32.3333 12V28H34.3333V12H32.3333ZM28 32.3333H12V34.3333H28V32.3333ZM7.66663 28V12H5.66663V28H7.66663ZM12 7.66669H28V5.66669H12V7.66669ZM12 32.3333C11.05 32.3333 10.3977 32.3326 9.89206 32.2913C9.39807 32.2509 9.1327 32.1769 8.94065 32.079L8.03267 33.861C8.55365 34.1265 9.11152 34.2341 9.7292 34.2846C10.3352 34.3341 11.083 34.3333 12 34.3333V32.3333ZM5.66663 28C5.66663 28.9169 5.66585 29.6648 5.71536 30.2708C5.76583 30.8885 5.87347 31.4463 6.13893 31.9673L7.92094 31.0593C7.82309 30.8673 7.74908 30.6019 7.70872 30.1079C7.6674 29.6022 7.66663 28.9499 7.66663 28H5.66663ZM8.94065 32.079C8.5016 31.8553 8.14465 31.4984 7.92094 31.0593L6.13893 31.9673C6.55438 32.7827 7.2173 33.4456 8.03267 33.861L8.94065 32.079ZM32.3333 28C32.3333 28.9499 32.3325 29.6022 32.2912 30.1079C32.2508 30.6019 32.1768 30.8673 32.079 31.0593L33.861 31.9673C34.1264 31.4463 34.2341 30.8885 34.2846 30.2708C34.3341 29.6648 34.3333 28.9169 34.3333 28H32.3333ZM28 34.3333C28.9169 34.3333 29.6647 34.3341 30.2707 34.2846C30.8884 34.2341 31.4463 34.1265 31.9673 33.861L31.0593 32.079C30.8672 32.1769 30.6019 32.2509 30.1079 32.2913C29.6022 32.3326 28.9499 32.3333 28 32.3333V34.3333ZM32.079 31.0593C31.8553 31.4984 31.4983 31.8553 31.0593 32.079L31.9673 33.861C32.7826 33.4456 33.4455 32.7827 33.861 31.9673L32.079 31.0593ZM34.3333 12C34.3333 11.0831 34.3341 10.3353 34.2846 9.72926C34.2341 9.11158 34.1264 8.55372 33.861 8.03273L32.079 8.94071C32.1768 9.13276 32.2508 9.39813 32.2912 9.89213C32.3325 10.3978 32.3333 11.0501 32.3333 12H34.3333ZM28 7.66669C28.9499 7.66669 29.6022 7.66746 30.1079 7.70878C30.6019 7.74914 30.8672 7.82315 31.0593 7.92101L31.9673 6.13899C31.4463 5.87354 30.8884 5.76589 30.2707 5.71542C29.6647 5.66591 28.9169 5.66669 28 5.66669V7.66669ZM33.861 8.03273C33.4455 7.21736 32.7826 6.55444 31.9673 6.13899L31.0593 7.92101C31.4983 8.14471 31.8553 8.50166 32.079 8.94071L33.861 8.03273ZM7.66663 12C7.66663 11.0501 7.6674 10.3978 7.70872 9.89212C7.74908 9.39813 7.82309 9.13276 7.92094 8.94071L6.13893 8.03273C5.87347 8.55372 5.76583 9.11158 5.71536 9.72926C5.66585 10.3353 5.66663 11.0831 5.66663 12H7.66663ZM12 5.66669C11.083 5.66669 10.3352 5.66591 9.7292 5.71542C9.11152 5.76589 8.55365 5.87354 8.03267 6.13899L8.94065 7.92101C9.1327 7.82315 9.39807 7.74914 9.89206 7.70878C10.3977 7.66746 11.05 7.66669 12 7.66669V5.66669ZM7.92094 8.94071C8.14465 8.50166 8.5016 8.14471 8.94065 7.92101L8.03267 6.13899C7.2173 6.55444 6.55438 7.21736 6.13893 8.03273L7.92094 8.94071ZM19 6.66669V16.6667H21V6.66669H19ZM20 15.6667H6.66663V17.6667H20V15.6667ZM19 16.6667V23.3334H21V16.6667H19ZM19 23.3334V33.3334H21V23.3334H19ZM20 24.3334H33.3333V22.3334H20V24.3334Z" fill="#1C1E20"/>
</svg>
