<svg width="53" height="15" viewBox="0 0 53 15" fill="none" xmlns="http://www.w3.org/2000/svg">
<path fill-rule="evenodd" clip-rule="evenodd" d="M6.11425 2.59201L3.44944 2.39262V5.98156L6.75084 5.73616V7.34658L3.44944 7.1932V10.2453L5.22598 10.5061L5.21117 11.2883H0.0888268L0 10.7975C0.305959 10.6032 0.70568 10.3987 1.19916 10.184V2.11655L0.103631 1.97851L0.118436 1.19631H7.84637C7.87766 1.76032 7.85737 2.36542 7.78552 3.01164C7.74162 3.40059 7.6829 3.7876 7.6095 4.17175H6.36592L6.11425 2.59201ZM52.9556 4.00304L53 4.67788C52.7335 4.84148 52.4572 4.9744 52.1709 5.07665C51.6829 6.87173 51.2484 8.33686 50.8676 9.47202C50.7913 9.70002 50.7125 9.92713 50.6313 10.1533C50.3609 10.8339 50.0163 11.4802 49.6042 12.0797C49.4484 12.3046 49.2823 12.5216 49.1064 12.73C48.7196 13.1836 48.2869 13.593 47.8159 13.9511C47.4617 14.2218 47.0918 14.4697 46.7081 14.6932L45.5682 12.684C45.9876 12.5638 46.4004 12.4202 46.8049 12.2539C47.2039 12.0881 47.5629 11.9073 47.8819 11.7117C48.1249 11.5643 48.3561 11.397 48.5735 11.2116C48.1688 11.1093 47.7987 10.9406 47.4631 10.7055L45.5534 5.24536L44.5466 4.80058V4.00304H48.4846L48.529 4.67788L47.7592 5.07665L48.6031 8.00608L48.7807 9.34043H49.0472C49.4716 7.93962 49.7874 6.52859 49.9947 5.10733L49.2249 4.80058L49.2397 4.00304H52.9556ZM30.9413 2.77606L31.3115 4.75457L30.9858 4.73923C30.7619 4.73815 30.5386 4.76169 30.3196 4.80948C30.1782 4.84074 30.0396 4.88393 29.905 4.93862C30.1814 5.33739 30.3196 5.78217 30.3196 6.27297C30.3247 6.59093 30.2633 6.90628 30.1397 7.19736C30.0161 7.48845 29.8332 7.74838 29.6035 7.9593C29.5229 8.03602 29.4382 8.10796 29.3499 8.17479C28.7034 8.66559 27.9015 8.91098 26.9441 8.91098L26.4408 8.88031L25.6709 9.57049C26.4507 9.58071 27.3142 9.67529 28.2617 9.85423C28.6566 9.92829 29.0495 10.013 29.4402 10.1082C29.8427 10.2069 30.2196 10.3131 30.5711 10.4268C30.6354 10.4476 30.6996 10.4689 30.7637 10.4907C30.8624 10.7873 30.9117 11.0889 30.9117 11.3956C30.9111 12.1183 30.6493 12.8146 30.1777 13.3472C29.9966 13.5596 29.7962 13.7535 29.5793 13.9263C28.7217 14.6171 27.6673 14.9942 26.581 14.9985C26.5392 14.9994 26.4974 14.9999 26.4556 14.9999C26.0942 15.0023 25.7338 14.9613 25.3815 14.8777C25.0028 14.7874 24.6406 14.6345 24.3089 14.4248C23.7553 14.0722 23.448 13.5576 23.3868 12.8809C23.3813 12.8205 23.3778 12.7599 23.3763 12.6993L25.0047 11.1809L24.0721 11.1196L23.776 10.138C24.1696 9.68789 24.6059 9.27986 25.0782 8.92003C25.1946 8.83187 25.3132 8.74703 25.4341 8.66559C25.169 8.57136 24.9169 8.44174 24.6842 8.28001C24.4639 8.12577 24.2675 7.93774 24.1017 7.72234C23.776 7.29801 23.6131 6.82 23.6131 6.2883C23.6131 5.52144 23.9364 4.88238 24.5828 4.37114C25.0478 4.00787 25.5917 3.76835 26.1669 3.6736C26.4384 3.62637 26.7133 3.60317 26.9885 3.60427C27.3192 3.60225 27.649 3.6367 27.9726 3.70703C28.3513 3.78895 28.7142 3.93564 29.0464 4.14108C29.3819 3.31286 30.0136 2.85785 30.9413 2.77606ZM39.3651 2.77606L39.7352 4.75457L39.4095 4.73923C39.1857 4.73815 38.9623 4.76169 38.7433 4.80948C38.602 4.84074 38.4633 4.88393 38.3288 4.93862C38.6051 5.33739 38.7433 5.78217 38.7433 6.27297C38.7484 6.59093 38.6871 6.90628 38.5635 7.19736C38.4399 7.48845 38.2569 7.74838 38.0272 7.9593C37.9467 8.03602 37.862 8.10796 37.7736 8.17479C37.1271 8.66559 36.3252 8.91098 35.3679 8.91098L34.8645 8.88031L34.0947 9.57049C34.8744 9.58071 35.738 9.67529 36.6855 9.85423C37.0803 9.92829 37.4733 10.013 37.8639 10.1082C38.2664 10.2069 38.6434 10.3131 38.9948 10.4268C39.0592 10.4476 39.1234 10.4689 39.1874 10.4907C39.2861 10.7873 39.3355 11.0889 39.3355 11.3956C39.3349 12.1183 39.073 12.8146 38.6015 13.3472C38.4203 13.5596 38.2199 13.7535 38.0031 13.9263C37.1454 14.6171 36.0911 14.9942 35.0047 14.9985C34.9629 14.9994 34.9211 14.9999 34.8793 14.9999C34.518 15.0023 34.1575 14.9613 33.8053 14.8777C33.4266 14.7874 33.0644 14.6345 32.7327 14.4248C32.1791 14.0722 31.8717 13.5576 31.8105 12.8809C31.8051 12.8205 31.8015 12.7599 31.8 12.6993L33.4285 11.1809L32.4958 11.1196L32.1997 10.138C32.5934 9.68789 33.0296 9.27986 33.5019 8.92003C33.6183 8.83187 33.737 8.74703 33.8578 8.66559C33.5928 8.57136 33.3407 8.44174 33.108 8.28001C32.8876 8.12577 32.6912 7.93774 32.5254 7.72234C32.1997 7.29801 32.0369 6.82 32.0369 6.2883C32.0369 5.52144 32.3601 4.88238 33.0066 4.37114C33.4716 4.00787 34.0155 3.76835 34.5906 3.6736C34.8621 3.62637 35.137 3.60317 35.4123 3.60427C35.7429 3.60225 36.0728 3.6367 36.3963 3.70703C36.775 3.78895 37.1379 3.93564 37.4701 4.14108C37.8057 3.31286 38.4373 2.85785 39.3651 2.77606ZM11.962 5.64413L13.4425 3.92635C13.6793 3.83433 13.9261 3.78832 14.1827 3.78832C14.3685 3.78672 14.5537 3.80987 14.7339 3.85718C14.9929 3.92488 15.2311 4.05949 15.4263 4.24844C15.3769 5.37318 15.1943 6.33943 14.8785 7.14719H13.7534L13.4573 5.42941C12.9202 5.84652 12.4326 6.32792 12.0046 6.86361C11.9904 6.8814 11.9762 6.89924 11.962 6.91713V10.0153C12.6529 10.1584 13.1858 10.3322 13.5609 10.5367L13.5017 11.2883H8.76425L8.71983 10.7668C8.91871 10.649 9.16362 10.5313 9.45458 10.4136C9.574 10.3654 9.69428 10.3195 9.81536 10.276V5.12267L8.70503 4.98463L8.6014 4.24844C9.45019 3.91102 10.3286 3.73208 11.2366 3.71163L11.962 4.38647V5.64413ZM43.4215 0.674842V10.0766C43.8642 10.223 44.2125 10.3694 44.4664 10.5157C44.4784 10.5226 44.4903 10.5296 44.5022 10.5367L44.443 11.2883H40.1941L40.1497 10.7668C40.2692 10.6971 40.3915 10.6326 40.5161 10.5734C40.6549 10.507 40.8058 10.4414 40.9687 10.3765C41.0702 10.3362 41.1722 10.2976 41.2749 10.2607V1.3957L40.1645 1.273L40.0609 0.536806C40.9097 0.199385 41.7881 0.0204498 42.6961 0L43.4215 0.674842ZM15.8329 6.29014C15.7164 6.71342 15.6593 7.15184 15.6631 7.59197C15.6629 7.75075 15.6698 7.90946 15.6837 8.06759C15.747 8.96377 16.1086 9.80941 16.7068 10.4601C17.0261 10.8135 17.4107 11.0969 17.8378 11.2933C18.3012 11.4986 18.801 11.6013 19.305 11.595C19.3523 11.595 19.3996 11.5943 19.4469 11.5927C19.8909 11.5893 20.3297 11.4926 20.7366 11.3085C21.1436 11.1244 21.5102 10.8566 21.8144 10.5214C22.2278 10.0679 22.5195 9.51024 22.6605 8.90378C22.7557 8.49957 22.8022 8.08471 22.7989 7.66866C22.7989 6.4928 22.4658 5.53422 21.7996 4.79291C21.1334 4.05161 20.2871 3.68096 19.2606 3.68096C18.2342 3.68096 17.378 4.04394 16.692 4.76991C16.2882 5.19485 15.993 5.71733 15.8329 6.29014ZM19.912 10.2607C20.3759 9.92325 20.6078 9.12059 20.6078 7.85271C20.6089 7.57014 20.5933 7.28776 20.561 7.00716C20.5271 6.7222 20.4747 6.46018 20.404 6.22112C20.3607 6.07372 20.3076 5.92961 20.2451 5.78984C20.1824 5.64647 20.1013 5.51254 20.0039 5.39168C19.8995 5.26056 19.7677 5.15576 19.6184 5.08524C19.4691 5.01472 19.3062 4.98031 19.1422 4.98463C18.8461 4.98463 18.5944 5.0562 18.3872 5.19935C18.2562 5.38565 18.1538 5.59182 18.0837 5.81054C17.9516 6.2041 17.8765 6.69285 17.8585 7.27679C17.8556 7.3716 17.8542 7.46645 17.8542 7.5613C17.8542 8.16119 17.9232 8.68 18.0612 9.11773C18.1089 9.27077 18.1684 9.41961 18.2391 9.56282C18.4903 10.0682 18.8691 10.3263 19.3755 10.337C19.3866 10.3373 19.3976 10.3374 19.4087 10.3374C19.5473 10.338 19.6855 10.3211 19.8202 10.2872C19.8511 10.2793 19.8817 10.2705 19.912 10.2607ZM26.7517 13.2821C27.2846 13.2821 27.8077 13.1799 28.3209 12.9754C28.7637 12.799 29.1036 12.5617 29.3407 12.2636C29.3782 12.2164 29.4134 12.1673 29.4461 12.1165C28.8246 11.8446 28.0581 11.6253 27.1467 11.4585C26.7307 11.3833 26.3126 11.3214 25.893 11.2729C25.7851 11.3572 25.6811 11.4468 25.5815 11.5415C25.2562 11.8532 25.0936 12.1369 25.0936 12.3926C25.0936 12.658 25.2373 12.8691 25.5247 13.0258C25.5363 13.0322 25.5481 13.0384 25.5599 13.0444C25.7056 13.1172 25.8591 13.1717 26.0172 13.2068C26.1634 13.2406 26.3219 13.2629 26.4926 13.274C26.5789 13.2795 26.6653 13.2822 26.7517 13.2821ZM35.1754 13.2821C35.7084 13.2821 36.2315 13.1799 36.7447 12.9754C37.1874 12.799 37.5274 12.5617 37.7644 12.2636C37.8019 12.2164 37.8371 12.1673 37.8698 12.1165C37.2483 11.8446 36.4819 11.6253 35.5704 11.4585C35.1545 11.3833 34.7364 11.3214 34.3168 11.2729C34.2088 11.3572 34.1049 11.4468 34.0053 11.5415C33.68 11.8532 33.5173 12.1369 33.5173 12.3926C33.5173 12.658 33.661 12.8691 33.9484 13.0258C33.9601 13.0322 33.9718 13.0384 33.9837 13.0444C34.1293 13.1172 34.2828 13.1717 34.441 13.2068C34.5871 13.2406 34.7456 13.2629 34.9163 13.274C35.0026 13.2795 35.089 13.2822 35.1754 13.2821ZM28.1984 6.57296C28.2012 6.51902 28.2025 6.46502 28.2025 6.411C28.2025 5.95088 28.0693 5.547 27.8028 5.19935C27.6956 5.05587 27.5627 4.93507 27.4115 4.84353C27.2193 4.73159 27.0018 4.67444 26.7813 4.67788C26.653 4.67864 26.5254 4.69685 26.4017 4.73202C26.3088 4.75808 26.218 4.79125 26.1299 4.83126C25.8535 5.11755 25.7154 5.58279 25.7154 6.22695C25.7141 6.40696 25.7323 6.58655 25.7695 6.76238C25.8206 7.00803 25.9234 7.23895 26.0707 7.4386C26.1693 7.5742 26.2948 7.68625 26.4389 7.76715C26.583 7.84805 26.7422 7.8959 26.9056 7.90746C26.9529 7.91189 27.0003 7.91409 27.0478 7.91406C27.1069 7.9137 27.166 7.90945 27.2247 7.90133C27.3461 7.88517 27.4845 7.85363 27.6399 7.8067C27.9828 7.54494 28.169 7.1337 28.1984 6.57296ZM36.6221 6.57296C36.6249 6.51902 36.6263 6.46502 36.6263 6.411C36.6263 5.95088 36.493 5.547 36.2265 5.19935C36.1193 5.05587 35.9865 4.93507 35.8353 4.84353C35.643 4.73159 35.4255 4.67444 35.205 4.67788C35.0768 4.67864 34.9491 4.69685 34.8254 4.73202C34.7326 4.75808 34.6417 4.79125 34.5536 4.83126C34.2773 5.11755 34.1391 5.58279 34.1391 6.22695C34.1379 6.40696 34.1561 6.58655 34.1933 6.76238C34.2443 7.00803 34.3471 7.23895 34.4944 7.4386C34.593 7.5742 34.7186 7.68625 34.8627 7.76715C35.0067 7.84805 35.1659 7.8959 35.3294 7.90746C35.3766 7.91189 35.4241 7.91409 35.4715 7.91406C35.5307 7.9137 35.5898 7.90945 35.6484 7.90133C35.7698 7.88517 35.9082 7.85363 36.0637 7.8067C36.4066 7.54494 36.5927 7.1337 36.6221 6.57296Z" fill="#0E0B01"/>
</svg>
