<svg width="47" height="15" viewBox="0 0 47 15" fill="none" xmlns="http://www.w3.org/2000/svg">
<path d="M15.1157 6.70735C15.1157 6.68812 15.1073 6.65566 15.1073 6.65566H8.27942C8.27942 6.65566 8.27942 6.67999 8.27942 6.74996C8.27942 7.50618 8.27942 8.26246 8.27942 9.01873V9.13636H12.1839C12.1823 9.1653 12.1755 9.19373 12.1639 9.22046L12.1576 9.23672C12.1009 9.38575 12.0452 9.53477 11.9843 9.68279C11.7548 10.2498 11.4036 10.7635 10.9538 11.1902C10.4833 11.64 9.90647 11.9725 9.27309 12.1594C8.20292 12.4732 7.05542 12.4376 6.00835 12.058C5.4803 11.8697 4.98962 11.5954 4.55768 11.247C4.01091 10.818 3.56871 10.2781 3.26249 9.66551C3.14445 9.43347 3.04267 9.19398 2.95786 8.94882C2.73985 8.28156 2.67391 7.57665 2.76456 6.88253C2.85521 6.18839 3.10032 5.52137 3.48308 4.9272C3.86888 4.32536 4.3853 3.8114 4.99677 3.42074C5.74797 2.93729 6.62051 2.65863 7.52231 2.61419C8.42404 2.56976 9.32143 2.76122 10.1198 3.16832C10.5982 3.42041 11.0319 3.74449 11.4045 4.12835L11.479 4.21047L13.6713 2.64724L13.6114 2.56614C13.1257 2.01943 12.5591 1.54494 11.9297 1.15803C11.35 0.806977 10.7253 0.530582 10.0715 0.335866C9.55111 0.181877 9.0157 0.0799645 8.47374 0.0317378C7.57941 -0.0483279 6.67748 0.0233804 5.80876 0.243614C5.2649 0.380368 4.73853 0.575197 4.2394 0.824496C3.50957 1.18348 2.84337 1.65191 2.26562 2.21234C1.34244 3.10159 0.667852 4.20215 0.30487 5.41121C-0.0581143 6.62029 -0.0976554 7.89841 0.189941 9.12621C0.316582 9.66866 0.503962 10.1962 0.748773 10.6995C1.06367 11.3442 1.47415 11.9412 1.96729 12.4716C2.89694 13.4872 4.09513 14.2399 5.43375 14.6492C5.94913 14.8101 6.48147 14.9152 7.02096 14.9624C8.32607 15.0904 9.64331 14.8902 10.8446 14.3815C11.5396 14.0838 12.1785 13.6769 12.7354 13.1772C13.4111 12.5744 13.96 11.8516 14.352 11.0483C14.6906 10.353 14.9217 9.61351 15.0379 8.85351C15.1423 8.16897 15.1698 7.4756 15.1199 6.78545C15.12 6.75935 15.1186 6.73332 15.1157 6.70735ZM46.9441 6.61714C46.8752 6.05918 46.7384 5.51101 46.5365 4.98397C46.0197 3.65086 45.102 2.49718 43.901 1.67099C43.414 1.32881 42.8802 1.05348 42.3148 0.852889C42.069 0.767729 41.3075 0.383513 39.3862 0.383513C37.4197 0.383513 35.4529 0.383513 33.4858 0.383513C33.4407 0.383513 33.3703 0.383513 33.3703 0.383513V0.494013C33.3703 2.8277 33.3703 5.16103 33.3703 7.49407C33.3703 9.82702 33.3703 12.1695 33.3703 14.5215C33.3703 14.557 33.3703 14.6117 33.3703 14.6117H33.4848C35.5562 14.6117 37.627 14.6117 39.6971 14.6117C39.8841 14.6117 40.0711 14.6046 40.257 14.5924C41.0204 14.5428 41.7701 14.3715 42.4755 14.0856C43.2479 13.7767 43.9587 13.3407 44.5764 12.797C45.5325 11.9596 46.2446 10.8949 46.6416 9.70914C46.8112 9.21138 46.9205 8.69629 46.9672 8.17426C47.0162 7.65602 47.0103 7.13425 46.9494 6.61714H46.9441ZM44.2466 8.13776C44.1329 8.9695 43.7826 9.75452 43.2344 10.4056C42.6863 11.0567 41.9617 11.5483 41.1414 11.8259C40.651 11.9879 40.1357 12.0691 39.6173 12.0661H36.1046C36.1046 12.0661 36.1046 12.0012 36.1046 11.9647C36.1046 10.4725 36.1046 8.98053 36.1046 7.48897C36.1046 6.00212 36.1046 4.5129 36.1046 3.02132C36.1046 2.9828 36.1046 2.9088 36.1046 2.9088H36.2096C37.3168 2.9088 38.424 2.9088 39.5311 2.9088C40.319 2.9088 41.0658 2.96151 42.0973 3.59917C42.6419 3.93594 43.1101 4.37559 43.4739 4.89165C43.8376 5.4077 44.0894 5.98948 44.214 6.60195C44.3147 7.10695 44.3275 7.62463 44.2518 8.13373L44.2466 8.13776ZM29.3303 1.98424C28.8191 1.47794 28.2078 1.07589 27.5326 0.80196C26.8573 0.52803 26.132 0.387802 25.3995 0.389595C22.9625 0.389595 20.5251 0.389595 18.0874 0.389595H17.9771V0.509219C17.9771 2.8402 17.9771 5.17185 17.9771 7.50416C17.9771 9.84662 17.9771 12.1888 17.9771 14.5305V14.6147H20.7083V14.5255C20.7083 13.3191 20.7083 12.1127 20.7083 10.9064V10.7887H20.8269C22.3347 10.7887 23.8424 10.7887 25.3501 10.7887C26.2142 10.7962 27.0681 10.6088 27.8439 10.2413C28.84 9.77457 29.663 9.02308 30.2011 8.0891C30.5401 7.50882 30.7544 6.8686 30.8314 6.20657C30.9455 5.32306 30.8161 4.42611 30.4564 3.60626C30.1937 3.0007 29.814 2.44888 29.3377 1.98019L29.3303 1.98424ZM28.1201 5.9075C27.9941 6.81987 27.4983 7.50113 26.6643 7.94821C26.2351 8.16638 25.7553 8.27487 25.2703 8.26346C23.7871 8.26346 22.3035 8.26346 20.8196 8.26346H20.7146V8.14993C20.7146 7.29638 20.7146 6.44277 20.7146 5.58918C20.7146 4.7356 20.7146 3.8793 20.7146 3.02031V2.9088H20.8112H25.2892C25.5896 2.90402 25.8889 2.94368 26.1769 3.02639C26.5421 3.13632 26.8802 3.31709 27.1706 3.55761C27.5607 3.87801 27.8515 4.29619 28.0109 4.76601C28.1405 5.13134 28.1804 5.5207 28.1275 5.90345L28.1201 5.9075Z" fill="#E9EBEC"/>
</svg>
