<svg width="41" height="41" viewBox="0 0 41 41" fill="none" xmlns="http://www.w3.org/2000/svg">
<g clip-path="url(#clip0_239_1710)">
<path d="M20.5012 0.902344C31.323 0.902344 40.1142 9.70167 40.11 20.5286C40.1056 31.3073 31.2921 40.1009 20.4941 40.0977C9.67156 40.0959 0.877716 31.2906 0.890028 20.4684C0.902601 9.67342 9.69357 0.902082 20.5012 0.902344ZM20.4816 38.8059C30.5867 38.8079 38.7977 30.6216 38.8147 20.528C38.8317 10.4232 30.6265 2.20416 20.5135 2.19658C10.4005 2.18899 2.1738 10.3999 2.17223 20.4961C2.17066 30.5795 10.395 38.8035 20.4816 38.8059V38.8059Z" fill="#E9EBEC"/>
<path d="M3.01001 20.5007C3.01001 10.8364 10.8369 3.01811 20.5098 3.021C30.1647 3.02363 37.9887 10.8456 37.99 20.4965C37.9913 30.155 30.1541 37.9833 20.4876 37.979C10.8338 37.9743 3.01027 30.1508 3.01001 20.5007ZM6.09705 27.8962C7.90634 31.6406 12.568 36.3938 19.8802 36.6927C26.1797 36.9503 31.5146 33.513 34.1668 29.1752L32.6485 29.4786L31.0299 21.7032L36.6814 20.5186V19.6289L31.2457 20.7499C30.7044 18.142 30.1699 15.5669 29.6292 12.9627L34.2737 11.9981C32.1201 8.30389 27.4206 4.55158 21.1827 4.30393C14.367 4.03341 9.31501 7.87747 6.97259 11.6066L8.20109 11.3737C8.72052 13.8802 9.2323 16.3506 9.74777 18.84L4.29777 19.978V20.8743L9.93453 19.7094C10.4266 22.0838 10.912 24.426 11.4017 26.7894L6.09705 27.8962Z" fill="#E9EBEC"/>
<path d="M9.37 11.1344L17.5866 9.37695L22.09 31.4731L13.8813 33.212C12.3775 25.8526 10.8738 18.4934 9.37 11.1344Z" fill="#E9EBEC"/>
<path d="M31.63 29.9603L23.561 31.6231L18.91 9.46976L26.9626 7.78809C28.5199 15.1869 30.0719 22.5597 31.63 29.9603Z" fill="#E9EBEC"/>
</g>
<defs>
<clipPath id="clip0_239_1710">
<rect width="41" height="41" fill="white"/>
</clipPath>
</defs>
</svg>
