<svg width="34" height="28" viewBox="0 0 34 28" fill="none" xmlns="http://www.w3.org/2000/svg">
<path d="M28.7294 0C31.6403 0 34 2.31764 34 5.17658C34 8.03553 31.6403 10.3532 28.7294 10.3532C28.6914 10.3532 28.6544 10.348 28.6175 10.348L21.8807 26.8533C21.5967 27.5469 20.9138 28 20.1517 28C19.3906 28 18.7065 27.5438 18.4268 26.8492L14.0704 16.0782L9.67062 26.8274C9.38771 27.5192 8.70483 27.9724 7.94475 27.972C7.18477 27.9714 6.5017 27.5165 6.2199 26.8233L0.114334 11.8057C-0.232656 10.8771 0.2359 9.84592 1.17136 9.47948C2.10683 9.11303 3.16932 9.54444 3.56824 10.4527L7.95107 21.2351L12.3529 10.4765C12.6358 9.78478 13.3187 9.3316 14.082 9.33195C14.8424 9.33321 15.5253 9.78953 15.8058 10.4838L20.1611 21.2486L25.1657 8.9836C24.1186 8.03806 23.4578 6.68508 23.4588 5.17658C23.4588 2.31764 25.8185 0 28.7294 0ZM28.7284 2.43433C27.1868 2.43548 25.9375 3.66255 25.9363 5.17658C25.9375 6.69045 27.187 7.91723 28.7284 7.9178C30.2691 7.91608 31.5176 6.68981 31.5194 5.17658C31.5176 3.6632 30.2692 2.43662 28.7284 2.43433Z" fill="#E9EBEC"/>
</svg>
